<?xml version="1.0" encoding="utf-8"?>
<!-- Generator: Adobe Illustrator 22.0.1, SVG Export Plug-In . SVG Version: 6.00 Build 0)  -->
<svg version="1.1" id="Ebene_1" xmlns="http://www.w3.org/2000/svg" xmlns:xlink="http://www.w3.org/1999/xlink" x="0px" y="0px"
	 viewBox="0 0 40 40" style="enable-background:new 0 0 40 40;" xml:space="preserve">
<style type="text/css">
	.st0{fill:#1793D1;}
</style>
<g id="layer1" transform="translate(-34.777313,-129.80241)">
	<g id="g2424" transform="matrix(0.8746356,0,0,0.8746356,14.730518,23.408954)">
		<path id="path2518" class="st0" d="M44.6,122.8c-1.9,4.7-3.1,7.8-5.3,12.4c1.3,1.4,2.9,3,5.6,4.9c-2.8-1.2-4.8-2.3-6.2-3.5
			c-2.8,5.7-7.1,13.9-15.8,29.7c6.9-4,12.2-6.4,17.2-7.4c-0.2-0.9-0.3-1.9-0.3-2.9v-0.2c0.1-4.4,2.4-7.8,5.1-7.6
			c2.7,0.2,4.8,4,4.7,8.4c0,0.8-0.1,1.6-0.3,2.4c4.9,1,10.2,3.4,17,7.3c-1.3-2.5-2.5-4.7-3.7-6.8c-1.8-1.4-3.7-3.2-7.5-5.2
			c2.6,0.7,4.5,1.5,6,2.4C49.5,135,48.6,132.1,44.6,122.8z"/>
		<g id="text2638">
			<path id="path3940" class="st0" d="M66.5,162.3v-1.2h-0.4V161h1.1v0.2h-0.5v1.2H66.5"/>
			<path id="path3942" class="st0" d="M67.4,162.3V161h0.3l0.3,1c0,0.1,0,0.2,0.1,0.2c0,0,0-0.1,0.1-0.2l0.3-0.9h0.3v1.3h-0.2v-1.1
				l-0.4,1.1h-0.2l-0.4-1.1v1.1L67.4,162.3"/>
		</g>
	</g>
</g>
</svg>
