<?xml version="1.0" encoding="utf-8"?>
<!-- Generator: Adobe Illustrator 21.0.2, SVG Export Plug-In . SVG Version: 6.00 Build 0)  -->
<svg version="1.1" id="Ebene_1" xmlns="http://www.w3.org/2000/svg" xmlns:xlink="http://www.w3.org/1999/xlink" x="0px" y="0px"
	 viewBox="0 0 141.7 141.7" style="enable-background:new 0 0 141.7 141.7;" xml:space="preserve">
<style type="text/css">
	.st0{fill:#9CCD2A;}
	.st1{fill:#932279;}
	.st2{fill:#EFA724;}
	.st3{fill:#262577;}
	.st4{fill:#FFFFFF;}
</style>
<g>
	<g id="g12742_6_" transform="translate(-749.79982,-1331.6428)">
		<g id="rect12744_6_">
			<path class="st0" d="M772,1353.9h44v43.9h-44V1353.9z"/>
		</g>
		<g id="rect12746_6_">
			<path class="st1" d="M825.4,1353.9h43.9v43.9h-43.9V1353.9z"/>
		</g>
		<g id="rect12748_6_">
			<path class="st2" d="M825.4,1407.2h43.9v43.9h-43.9V1407.2z"/>
		</g>
		<g id="rect12750_6_">
			<path class="st3" d="M772,1407.2h44v43.9h-44V1407.2z"/>
		</g>
	</g>
	<polygon class="st2" points="75.6,22.2 91.4,22.2 70.9,1.5 50.1,22.2 66.2,22.2 66.2,60 70.9,64.8 75.6,60.2 	"/>
	<polygon class="st1" points="22.2,75.6 60,75.6 64.8,70.8 60.2,66.2 22.2,66.2 22.2,50.3 1.5,70.8 22.2,91.6 	"/>
	<polygon class="st0" points="75.6,119.5 75.6,81.7 70.8,76.9 66.2,81.6 66.2,119.5 50.3,119.5 70.8,140.3 91.6,119.5 	"/>
	<polygon class="st3" points="140.3,70.9 119.5,50.1 119.5,66.2 81.7,66.2 76.9,70.9 81.6,75.6 119.5,75.6 119.5,91.4 	"/>
	<path class="st4" d="M121,91.6l20.8-20.8L121,50.1V20.8H91.6L70.9,0L50.1,20.8H20.8v29.4L0,70.9l20.8,20.8V121h29.4L71,141.8
		L91.6,121H121V91.6z M137.6,70.9L121,87.5V74.1H82.8l-3.2-3.2l3.2-3.2H121V54.3L137.6,70.9z M118,90.4l-9.4,9.4L85.8,77H118V90.4z
		 M74.1,78.7l-3.2-3.2l-3.2,3.2v-4.6h-4.6l3.2-3.2l-3.2-3.2h4.6v-4.6l3.2,3.2l3.2-3.2v4.6h4.6l-3.2,3.2l3.2,3.2h-4.6V78.7z
		 M85.8,64.7l22.8-22.8l9.4,9.4v13.4H85.8z M118,23.7v23.5l-9.4-9.4l-27,27H77v-4.6l27-27l-9.4-9.4H118V23.7z M77,55.9V23.7h13.4
		l9.4,9.4L77,55.9z M70.9,4.2l16.6,16.6H74.1v38.1l-3.2,3.2l-3.2-3.2V20.8H54.3L70.9,4.2z M64.7,55.9L41.9,33.1l9.4-9.4h13.4
		C64.7,23.7,64.7,55.9,64.7,55.9z M23.7,23.7h23.5l-9.4,9.4l27,27v4.6h-4.6l-27-27l-9.4,9.4V23.7H23.7z M23.7,51.3l9.4-9.4
		l22.8,22.8H23.7V51.3z M4.2,70.9l16.6-16.6v13.4h38.1l3.2,3.2l-3.2,3.2H20.8v13.4L4.2,70.9z M55.9,77L33.1,99.8l-9.4-9.4V77H55.9z
		 M23.7,118V94.6l9.4,9.4l27-27h4.6v4.6l-27,27l9.4,9.4H23.7z M64.7,85.8V118H51.3l-9.4-9.4L64.7,85.8z M70.9,137.6L54.3,121h13.4
		V82.8l3.2-3.2l3.2,3.2V121h13.4L70.9,137.6z M77,85.8l22.8,22.8l-9.4,9.4H77V85.8z M94.6,118l9.4-9.4l-27-27V77h4.6l27,27l9.4-9.4
		V118H94.6z"/>
</g>
</svg>
