<?xml version="1.0" encoding="utf-8"?>
<!-- Generator: Adobe Illustrator 21.0.2, SVG Export Plug-In . SVG Version: 6.00 Build 0)  -->
<svg version="1.1" id="Ebene_1" xmlns="http://www.w3.org/2000/svg" xmlns:xlink="http://www.w3.org/1999/xlink" x="0px" y="0px"
	 viewBox="0 0 141.7 141.7" style="enable-background:new 0 0 141.7 141.7;" xml:space="preserve">
<style type="text/css">
	.st0{fill:#294172;}
	.st1{fill:#3C6EB4;}
	.st2{fill:#FFFFFF;}
</style>
<g>
	<path id="voice" class="st0" d="M141.7,70.9C141.7,31.7,110,0,70.9,0C31.7,0,0,31.7,0,70.8v54.8c0,8.9,7.2,16.1,16.1,16.1h54.8
		C110,141.7,141.7,110,141.7,70.9"/>
	<path class="st1" d="M91.7,16.8c-18.3,0-33.2,14.9-33.2,33.2v17.6H40.9c-18.3,0-33.2,14.9-33.2,33.2S22.6,134,40.9,134
		s33.2-14.9,33.2-33.2V83.3h17.6c18.3,0,33.2-14.9,33.2-33.2S110,16.8,91.7,16.8z M58.6,100.9c0,9.8-7.9,17.7-17.7,17.7
		s-17.7-7.9-17.7-17.7s7.9-17.7,17.7-17.7h17.6l0,0h0.1V100.9z M91.7,67.7H74.1l0,0H74V50c0-9.8,7.9-17.7,17.7-17.7
		s17.7,7.9,17.7,17.7S101.4,67.7,91.7,67.7z"/>
	<path class="st2" d="M99,17.8c-2.6-0.7-4.6-1-7.3-1c-18.4,0-33.3,14.9-33.3,33.3v17.6H44.5c-4.3,0-7.9,3.4-7.9,7.7
		c0,4.3,3.5,7.7,7.8,7.7h11.5c1.4,0,2.5,1.1,2.5,2.5v15.3c0,9.7-7.9,17.5-17.6,17.5c-3.3,0-4.1-0.4-6.3-0.4c-4.7,0-7.9,3.2-7.9,7.5
		c0,3.6,3.1,6.7,6.8,7.7c2.6,0.7,4.6,1,7.3,1c18.4,0,33.3-14.9,33.3-33.3V83.2h14c4.3,0,7.9-3.4,7.9-7.7c0-4.3-3.5-7.7-7.8-7.7H76.6
		c-1.4,0-2.5-1.1-2.5-2.5V50c0-9.7,7.9-17.5,17.6-17.5c3.3,0,4.1,0.4,6.3,0.4c4.7,0,7.9-3.2,7.9-7.5C105.9,21.9,102.8,18.8,99,17.8z
		"/>
	<path id="TM" class="st1" d="M129.5,129.5v-2.9l-1.3,3.1l-1.3-3.1v2.9h-0.8v-4.6h0.8l1.3,3l1.3-3h0.8v4.6H129.5z M124,125.6v3.9
		h-0.8v-3.9h-1.3v-0.8h3.4v0.8"/>
</g>
</svg>
